<svg xmlns="http://www.w3.org/2000/svg" width="21.591" height="17.163" viewBox="0 0 21.591 17.163">
  <path id="Forma_1" data-name="Forma 1" d="M18.7,17.081l-1.771-.843a.843.843,0,0,1,.725-1.523l1.087.518A9.082,9.082,0,0,0,19.1,7.052a.843.843,0,0,1,1.537-.694,10.773,10.773,0,0,1-.877,10.431.844.844,0,0,1-1.064.292Zm-16.87-.293A10.792,10.792,0,0,1,15.233.951a.843.843,0,0,1-.694,1.537,9.015,9.015,0,0,0-2.9-.764V2.993a.843.843,0,0,1-1.687,0V1.725A9.118,9.118,0,0,0,3.025,6.048L4.2,6.613a.843.843,0,1,1-.729,1.52L2.28,7.562a9.063,9.063,0,0,0,.569,7.664l1.041-.508a.843.843,0,1,1,.739,1.516L2.9,17.077a.843.843,0,0,1-1.071-.29Zm7.178-4.2a2.533,2.533,0,0,1,0-3.578c.68-.68,7.011-5.006,8.273-5.866a.843.843,0,0,1,1.172,1.172c-.86,1.263-5.186,7.592-5.866,8.273a2.533,2.533,0,0,1-3.578,0ZM10.2,10.2a.843.843,0,0,0,1.192,1.193c.261-.264,1.543-2.061,3.08-4.272C12.261,8.656,10.463,9.938,10.2,10.2Z" fill="#fff"/>
</svg>
