<svg xmlns="http://www.w3.org/2000/svg" width="19" height="23" viewBox="0 0 19 23">
  <g id="status" transform="translate(0 -0.039)">
    <g id="Group_20" data-name="Group 20" transform="translate(0 0.039)">
      <path id="Path_65" data-name="Path 65" d="M-49.283-163.729v13.835c-.017.073-.039.144-.052.217a5.048,5.048,0,0,1-3.564,4.046,12.078,12.078,0,0,1-1.394.319h-8.976c-.216-.037-.434-.066-.647-.11a5.132,5.132,0,0,1-4.358-4.935c-.015-4.3-.007-8.608,0-12.912a4.564,4.564,0,0,1,1.007-2.9,5.583,5.583,0,0,1,4.6-2.137c4.64-.006,3.13,0,7.77,0,.114,0,.229,0,.344.007a5.424,5.424,0,0,1,4.931,3.317A11.436,11.436,0,0,1-49.283-163.729ZM-61.72-166.5c-2.263,0,1.4-.006-.864,0a3.619,3.619,0,0,0-3.83,3.493q-.013,6.2,0,12.4a3.617,3.617,0,0,0,3.83,3.493c4.51.006,3.095.006,7.6,0a3.617,3.617,0,0,0,3.83-3.493q.013-6.2-.006-12.4a3.39,3.39,0,0,0-.2-1.144,3.729,3.729,0,0,0-3.621-2.349C-57.225-166.508-59.472-166.5-61.72-166.5Z" transform="translate(68.283 168.311)" fill="#fff"/>
    </g>
    <path id="Union_14" data-name="Union 14" d="M8470.478,15368.879l-1.725-1.5a1,1,0,0,1,1.312-1.509l1.158,1.006,3.259-3.146a1,1,0,0,1,1.388,1.438l-3.8,3.669a1,1,0,0,1-.814.274.911.911,0,0,1-.126.009A.991.991,0,0,1,8470.478,15368.879Zm0-5-1.725-1.5a1,1,0,0,1,1.312-1.512l1.159,1.008,3.258-3.146a1,1,0,0,1,1.388,1.439l-3.8,3.668a1,1,0,0,1-.807.273,1.028,1.028,0,0,1-.134.01A.986.986,0,0,1,8470.478,15363.88Z" transform="translate(-8462.41 -15352.414)" fill="#fff"/>
  </g>
</svg>
